<mxfile host="app.diagrams.net" modified="2021-12-01T04:01:18.365Z" agent="5.0 (Macintosh; Intel Mac OS X 10_15_7) AppleWebKit/537.36 (KHTML, like Gecko) Chrome/96.0.4664.55 Safari/537.36" etag="z73y0dg5G7N4pcuEVw9x" version="15.8.6" type="github">
  <diagram id="xxwV39Ua2WD0U56Hqpws" name="Page-1">
    <mxGraphModel dx="2066" dy="2300" grid="1" gridSize="10" guides="1" tooltips="1" connect="1" arrows="1" fold="1" page="1" pageScale="1" pageWidth="827" pageHeight="1169" math="0" shadow="0">
      <root>
        <mxCell id="0" />
        <mxCell id="1" parent="0" />
        <mxCell id="VseX3h2NeKiF3vsX8Dy--5" value="&lt;font style=&quot;font-size: 24px&quot;&gt;&lt;b&gt;Candidate&lt;/b&gt;&lt;/font&gt;" style="rounded=0;whiteSpace=wrap;html=1;" parent="1" vertex="1">
          <mxGeometry x="60" y="420" width="200" height="95" as="geometry" />
        </mxCell>
        <mxCell id="VseX3h2NeKiF3vsX8Dy--37" value="" style="edgeStyle=orthogonalEdgeStyle;rounded=0;orthogonalLoop=1;jettySize=auto;html=1;fontSize=24;" parent="1" edge="1">
          <mxGeometry relative="1" as="geometry">
            <mxPoint x="475" y="-40" as="sourcePoint" />
            <mxPoint x="475" y="107" as="targetPoint" />
          </mxGeometry>
        </mxCell>
        <mxCell id="VseX3h2NeKiF3vsX8Dy--19" value="&lt;font style=&quot;font-size: 24px&quot;&gt;&lt;b&gt;Recruiter&lt;/b&gt;&lt;/font&gt;" style="rounded=0;whiteSpace=wrap;html=1;" parent="1" vertex="1">
          <mxGeometry x="390" y="420" width="190" height="95" as="geometry" />
        </mxCell>
        <mxCell id="VseX3h2NeKiF3vsX8Dy--20" value="&lt;font style=&quot;font-size: 24px&quot;&gt;&lt;b&gt;Job&lt;/b&gt;&lt;/font&gt;" style="rounded=0;whiteSpace=wrap;html=1;" parent="1" vertex="1">
          <mxGeometry x="700" y="420" width="200" height="95" as="geometry" />
        </mxCell>
        <mxCell id="VseX3h2NeKiF3vsX8Dy--21" value="&lt;font style=&quot;font-size: 24px&quot;&gt;&lt;b&gt;Company&lt;/b&gt;&lt;/font&gt;" style="rounded=0;whiteSpace=wrap;html=1;" parent="1" vertex="1">
          <mxGeometry x="985" y="420" width="190" height="95" as="geometry" />
        </mxCell>
        <mxCell id="VseX3h2NeKiF3vsX8Dy--22" value="&lt;span style=&quot;font-size: 24px&quot;&gt;&lt;b&gt;APP网关&lt;/b&gt;&lt;/span&gt;" style="rounded=0;whiteSpace=wrap;html=1;" parent="1" vertex="1">
          <mxGeometry x="380" y="110" width="220" height="87" as="geometry" />
        </mxCell>
        <mxCell id="VseX3h2NeKiF3vsX8Dy--25" value="" style="endArrow=classic;html=1;rounded=0;fontSize=24;exitX=0.468;exitY=1.014;exitDx=0;exitDy=0;exitPerimeter=0;" parent="1" source="VseX3h2NeKiF3vsX8Dy--22" edge="1">
          <mxGeometry width="50" height="50" relative="1" as="geometry">
            <mxPoint x="470" y="207" as="sourcePoint" />
            <mxPoint x="483" y="410" as="targetPoint" />
          </mxGeometry>
        </mxCell>
        <mxCell id="VseX3h2NeKiF3vsX8Dy--29" value="" style="endArrow=classic;html=1;rounded=0;fontSize=24;exitX=-0.021;exitY=0.579;exitDx=0;exitDy=0;exitPerimeter=0;" parent="1" edge="1" source="VseX3h2NeKiF3vsX8Dy--19">
          <mxGeometry width="50" height="50" relative="1" as="geometry">
            <mxPoint x="380" y="474" as="sourcePoint" />
            <mxPoint x="260" y="474" as="targetPoint" />
          </mxGeometry>
        </mxCell>
        <mxCell id="VseX3h2NeKiF3vsX8Dy--30" value="" style="endArrow=classic;html=1;rounded=0;fontSize=24;" parent="1" edge="1">
          <mxGeometry width="50" height="50" relative="1" as="geometry">
            <mxPoint x="579" y="474" as="sourcePoint" />
            <mxPoint x="699" y="474" as="targetPoint" />
          </mxGeometry>
        </mxCell>
        <mxCell id="VseX3h2NeKiF3vsX8Dy--31" value="" style="endArrow=classic;html=1;rounded=0;fontSize=24;entryX=0;entryY=0.579;entryDx=0;entryDy=0;entryPerimeter=0;exitX=0.995;exitY=0.589;exitDx=0;exitDy=0;exitPerimeter=0;" parent="1" edge="1" target="VseX3h2NeKiF3vsX8Dy--21" source="VseX3h2NeKiF3vsX8Dy--20">
          <mxGeometry width="50" height="50" relative="1" as="geometry">
            <mxPoint x="906" y="473" as="sourcePoint" />
            <mxPoint x="977" y="473" as="targetPoint" />
          </mxGeometry>
        </mxCell>
        <mxCell id="VseX3h2NeKiF3vsX8Dy--41" value="" style="triangle;whiteSpace=wrap;html=1;fontSize=24;direction=west;fillColor=#f8cecc;strokeColor=#b85450;" parent="1" vertex="1">
          <mxGeometry x="101" y="280" width="380" height="100" as="geometry" />
        </mxCell>
        <mxCell id="VseX3h2NeKiF3vsX8Dy--42" value="" style="triangle;whiteSpace=wrap;html=1;fontSize=24;direction=east;fillColor=#dae8fc;strokeColor=#6c8ebf;" parent="1" vertex="1">
          <mxGeometry x="482" y="280" width="411" height="100" as="geometry" />
        </mxCell>
        <mxCell id="VseX3h2NeKiF3vsX8Dy--43" value="" style="triangle;whiteSpace=wrap;html=1;fontSize=24;direction=south;fillColor=#f8cecc;strokeColor=#b85450;" parent="1" vertex="1">
          <mxGeometry x="311" y="474" width="40" height="30" as="geometry" />
        </mxCell>
        <mxCell id="VseX3h2NeKiF3vsX8Dy--44" value="" style="triangle;whiteSpace=wrap;html=1;fontSize=24;direction=north;fillColor=#dae8fc;strokeColor=#6c8ebf;" parent="1" vertex="1">
          <mxGeometry x="311" y="444" width="40" height="30" as="geometry" />
        </mxCell>
        <mxCell id="VseX3h2NeKiF3vsX8Dy--45" value="" style="triangle;whiteSpace=wrap;html=1;fontSize=24;direction=south;fillColor=#f8cecc;strokeColor=#b85450;" parent="1" vertex="1">
          <mxGeometry x="630" y="472" width="40" height="30" as="geometry" />
        </mxCell>
        <mxCell id="VseX3h2NeKiF3vsX8Dy--46" value="" style="triangle;whiteSpace=wrap;html=1;fontSize=24;direction=north;fillColor=#dae8fc;strokeColor=#6c8ebf;" parent="1" vertex="1">
          <mxGeometry x="630" y="442" width="40" height="30" as="geometry" />
        </mxCell>
        <mxCell id="VseX3h2NeKiF3vsX8Dy--47" value="" style="triangle;whiteSpace=wrap;html=1;fontSize=24;direction=south;fillColor=#f8cecc;strokeColor=#b85450;" parent="1" vertex="1">
          <mxGeometry x="921" y="474" width="40" height="30" as="geometry" />
        </mxCell>
        <mxCell id="VseX3h2NeKiF3vsX8Dy--48" value="" style="triangle;whiteSpace=wrap;html=1;fontSize=24;direction=north;fillColor=#dae8fc;strokeColor=#6c8ebf;" parent="1" vertex="1">
          <mxGeometry x="921" y="444" width="40" height="30" as="geometry" />
        </mxCell>
        <mxCell id="VseX3h2NeKiF3vsX8Dy--50" value="&lt;span style=&quot;font-size: 24px&quot;&gt;&lt;b&gt;授权服务&lt;/b&gt;&lt;/span&gt;" style="rounded=0;whiteSpace=wrap;html=1;" parent="1" vertex="1">
          <mxGeometry x="902" y="-130" width="128" height="70" as="geometry" />
        </mxCell>
        <mxCell id="VseX3h2NeKiF3vsX8Dy--51" value="" style="image;html=1;image=img/lib/clip_art/people/Suit_Man_128x128.png;fontSize=24;" parent="1" vertex="1">
          <mxGeometry x="390" y="-230" width="125" height="140" as="geometry" />
        </mxCell>
        <mxCell id="VseX3h2NeKiF3vsX8Dy--52" value="" style="html=1;points=[];perimeter=orthogonalPerimeter;fontSize=24;" parent="1" vertex="1">
          <mxGeometry x="892" y="-150" width="10" height="110" as="geometry" />
        </mxCell>
        <mxCell id="VseX3h2NeKiF3vsX8Dy--53" value="登录(uid灰度)" style="html=1;verticalAlign=bottom;endArrow=block;rounded=0;fontSize=24;" parent="1" edge="1">
          <mxGeometry relative="1" as="geometry">
            <mxPoint x="520" y="-150" as="sourcePoint" />
            <mxPoint x="900" y="-150" as="targetPoint" />
          </mxGeometry>
        </mxCell>
        <mxCell id="VseX3h2NeKiF3vsX8Dy--54" value="return" style="html=1;verticalAlign=bottom;endArrow=open;dashed=1;endSize=8;rounded=0;fontSize=24;" parent="1" source="VseX3h2NeKiF3vsX8Dy--52" edge="1">
          <mxGeometry relative="1" as="geometry">
            <mxPoint x="480" y="-44" as="targetPoint" />
          </mxGeometry>
        </mxCell>
        <mxCell id="VseX3h2NeKiF3vsX8Dy--55" value="token" style="text;html=1;align=center;verticalAlign=middle;resizable=0;points=[];autosize=1;strokeColor=none;fillColor=none;fontSize=24;" parent="1" vertex="1">
          <mxGeometry x="445" y="-85" width="70" height="30" as="geometry" />
        </mxCell>
        <mxCell id="VseX3h2NeKiF3vsX8Dy--56" value="" style="triangle;whiteSpace=wrap;html=1;fontSize=24;direction=north;fillColor=#f8cecc;strokeColor=#b85450;" parent="1" vertex="1">
          <mxGeometry x="1243" y="236" width="40" height="30" as="geometry" />
        </mxCell>
        <mxCell id="VseX3h2NeKiF3vsX8Dy--57" value="" style="triangle;whiteSpace=wrap;html=1;fontSize=24;direction=north;fillColor=#dae8fc;strokeColor=#6c8ebf;" parent="1" vertex="1">
          <mxGeometry x="1243" y="296" width="40" height="30" as="geometry" />
        </mxCell>
        <mxCell id="VseX3h2NeKiF3vsX8Dy--58" value="&lt;span style=&quot;font-size: 18px&quot;&gt;firebase token 校验token&lt;/span&gt;" style="text;html=1;align=center;verticalAlign=middle;resizable=0;points=[];autosize=1;strokeColor=none;fillColor=none;fontSize=24;" parent="1" vertex="1">
          <mxGeometry x="1291" y="236" width="210" height="40" as="geometry" />
        </mxCell>
        <mxCell id="VseX3h2NeKiF3vsX8Dy--59" value="&lt;span style=&quot;font-size: 18px&quot;&gt;自定义JWT token.直接放行&lt;/span&gt;" style="text;html=1;align=center;verticalAlign=middle;resizable=0;points=[];autosize=1;strokeColor=none;fillColor=none;fontSize=24;" parent="1" vertex="1">
          <mxGeometry x="1281" y="294" width="230" height="40" as="geometry" />
        </mxCell>
        <mxCell id="0zBEpHTurfq1nnmhLXu4-1" value="&lt;font style=&quot;font-size: 18px&quot;&gt;firebase token鉴权&lt;/font&gt;" style="text;html=1;align=center;verticalAlign=middle;resizable=0;points=[];autosize=1;strokeColor=none;fillColor=none;" vertex="1" parent="1">
          <mxGeometry x="280" y="318" width="160" height="20" as="geometry" />
        </mxCell>
        <mxCell id="0zBEpHTurfq1nnmhLXu4-3" value="old&amp;nbsp; &amp;nbsp;new" style="text;html=1;align=center;verticalAlign=middle;resizable=0;points=[];autosize=1;strokeColor=none;fillColor=none;fontSize=18;" vertex="1" parent="1">
          <mxGeometry x="439" y="237" width="90" height="30" as="geometry" />
        </mxCell>
        <mxCell id="0zBEpHTurfq1nnmhLXu4-4" value="&lt;font style=&quot;font-size: 18px&quot;&gt;my-jwt token 放行&lt;/font&gt;" style="text;html=1;align=center;verticalAlign=middle;resizable=0;points=[];autosize=1;strokeColor=none;fillColor=none;" vertex="1" parent="1">
          <mxGeometry x="486" y="318" width="160" height="20" as="geometry" />
        </mxCell>
        <mxCell id="0zBEpHTurfq1nnmhLXu4-9" value="" style="triangle;whiteSpace=wrap;html=1;fontSize=24;direction=south;fillColor=#f8cecc;strokeColor=#b85450;" vertex="1" parent="1">
          <mxGeometry x="1245" y="187" width="40" height="30" as="geometry" />
        </mxCell>
        <mxCell id="0zBEpHTurfq1nnmhLXu4-10" value="" style="triangle;whiteSpace=wrap;html=1;fontSize=24;direction=north;fillColor=#dae8fc;strokeColor=#6c8ebf;" vertex="1" parent="1">
          <mxGeometry x="1245" y="157" width="40" height="30" as="geometry" />
        </mxCell>
        <mxCell id="0zBEpHTurfq1nnmhLXu4-11" value="&lt;font style=&quot;font-size: 18px&quot;&gt;业务层鉴权逻辑&lt;/font&gt;" style="text;html=1;align=center;verticalAlign=middle;resizable=0;points=[];autosize=1;strokeColor=none;fillColor=none;fontSize=24;" vertex="1" parent="1">
          <mxGeometry x="1319" y="169" width="140" height="40" as="geometry" />
        </mxCell>
        <mxCell id="0zBEpHTurfq1nnmhLXu4-12" value="" style="triangle;whiteSpace=wrap;html=1;fontSize=24;direction=north;fillColor=#d5e8d4;strokeColor=#82b366;" vertex="1" parent="1">
          <mxGeometry x="1243" y="-84" width="40" height="30" as="geometry" />
        </mxCell>
        <mxCell id="0zBEpHTurfq1nnmhLXu4-13" value="" style="triangle;whiteSpace=wrap;html=1;fontSize=24;direction=north;fillColor=#ffe6cc;strokeColor=#d79b00;" vertex="1" parent="1">
          <mxGeometry x="1243" y="-24" width="40" height="30" as="geometry" />
        </mxCell>
        <mxCell id="0zBEpHTurfq1nnmhLXu4-14" value="&lt;span style=&quot;font-size: 18px&quot;&gt;firebase token 直接放行&lt;/span&gt;" style="text;html=1;align=center;verticalAlign=middle;resizable=0;points=[];autosize=1;strokeColor=none;fillColor=none;fontSize=24;" vertex="1" parent="1">
          <mxGeometry x="1291" y="-84" width="210" height="40" as="geometry" />
        </mxCell>
        <mxCell id="0zBEpHTurfq1nnmhLXu4-15" value="&lt;span style=&quot;font-size: 18px&quot;&gt;JWT token. token校验&lt;/span&gt;" style="text;html=1;align=center;verticalAlign=middle;resizable=0;points=[];autosize=1;strokeColor=none;fillColor=none;fontSize=24;" vertex="1" parent="1">
          <mxGeometry x="1301" y="-26" width="190" height="40" as="geometry" />
        </mxCell>
        <mxCell id="0zBEpHTurfq1nnmhLXu4-16" value="" style="triangle;whiteSpace=wrap;html=1;fontSize=24;direction=south;fillColor=#ffe6cc;strokeColor=#d79b00;" vertex="1" parent="1">
          <mxGeometry x="1245" y="-133" width="40" height="30" as="geometry" />
        </mxCell>
        <mxCell id="0zBEpHTurfq1nnmhLXu4-17" value="" style="triangle;whiteSpace=wrap;html=1;fontSize=24;direction=north;fillColor=#d5e8d4;strokeColor=#82b366;" vertex="1" parent="1">
          <mxGeometry x="1245" y="-163" width="40" height="30" as="geometry" />
        </mxCell>
        <mxCell id="0zBEpHTurfq1nnmhLXu4-18" value="&lt;font style=&quot;font-size: 18px&quot;&gt;网关层鉴权逻辑&lt;/font&gt;" style="text;html=1;align=center;verticalAlign=middle;resizable=0;points=[];autosize=1;strokeColor=none;fillColor=none;fontSize=24;" vertex="1" parent="1">
          <mxGeometry x="1319" y="-151" width="140" height="40" as="geometry" />
        </mxCell>
        <mxCell id="0zBEpHTurfq1nnmhLXu4-20" value="" style="triangle;whiteSpace=wrap;html=1;fontSize=24;direction=west;fillColor=#d5e8d4;strokeColor=#82b366;" vertex="1" parent="1">
          <mxGeometry x="160" y="-20" width="316" height="100" as="geometry" />
        </mxCell>
        <mxCell id="0zBEpHTurfq1nnmhLXu4-21" value="" style="triangle;whiteSpace=wrap;html=1;fontSize=24;direction=east;fillColor=#ffe6cc;strokeColor=#d79b00;" vertex="1" parent="1">
          <mxGeometry x="477" y="-20" width="303" height="100" as="geometry" />
        </mxCell>
        <mxCell id="0zBEpHTurfq1nnmhLXu4-22" value="&lt;span style=&quot;font-size: 18px&quot;&gt;fierebase token 放行&lt;/span&gt;" style="text;html=1;align=center;verticalAlign=middle;resizable=0;points=[];autosize=1;strokeColor=none;fillColor=none;" vertex="1" parent="1">
          <mxGeometry x="265" y="18" width="180" height="20" as="geometry" />
        </mxCell>
        <mxCell id="0zBEpHTurfq1nnmhLXu4-23" value="&lt;span style=&quot;font-size: 18px&quot;&gt;my-jwt token 鉴权&lt;/span&gt;" style="text;html=1;align=center;verticalAlign=middle;resizable=0;points=[];autosize=1;strokeColor=none;fillColor=none;" vertex="1" parent="1">
          <mxGeometry x="481" y="18" width="160" height="20" as="geometry" />
        </mxCell>
      </root>
    </mxGraphModel>
  </diagram>
</mxfile>
